<svg id="Lager_1" data-name="Lager 1" xmlns="http://www.w3.org/2000/svg" xmlns:xlink="http://www.w3.org/1999/xlink" viewBox="0 0 545.14 394.61"><defs><style>.cls-1{fill:none;}.cls-2{fill:#85754e;}.cls-3{clip-path:url(#clip-path);}</style><clipPath id="clip-path"><rect class="cls-1" width="545.14" height="394.61"/></clipPath></defs><polygon class="cls-2" points="117.56 326.99 117.69 327.06 145.38 327.06 252.05 136.99 265.38 184.87 314.52 134.04 418.21 287.57 435.89 270.93 516.15 394.61 545.14 394.61 440.42 233.31 422.36 250.31 317.88 95.63 277.4 137.49 259.67 73.79 117.56 326.99"/><g class="cls-3"><path class="cls-2" d="M354.14,112a9.07,9.07,0,0,1-4.62,1.07c-3.72,0-6.86-2.23-6.86-6.18,0-4.37,3-6.89,7-6.89a7.8,7.8,0,0,1,3.88.78l0,2.52a6.53,6.53,0,0,0-3.86-1.16c-2.75,0-4.2,1.68-4.2,4.39a4.22,4.22,0,0,0,4.5,4.34,7.33,7.33,0,0,0,4.1-1.23Zm4.34-5.4a9.3,9.3,0,1,0-9.29,9.31,9.31,9.31,0,0,0,9.29-9.31m-9.29-11.61a11.63,11.63,0,1,1-11.64,11.61,11.65,11.65,0,0,1,11.64-11.61"/></g><polygon class="cls-2" points="237.15 0 186.59 14.24 207.35 25.88 0 394.61 316.16 394.61 316.16 370.33 41.52 370.33 228.53 37.75 251.39 50.56 237.15 0"/><g class="cls-3"><path class="cls-2" d="M331,389.17a12.62,12.62,0,0,0,6.57,1.85c2.61,0,5-1,5-4.06,0-2.57-2.44-3.33-5.08-4.46-3-1.28-6.33-2.11-6.33-6.36,0-4.42,3.46-6.57,8-6.57a12.34,12.34,0,0,1,5.67,1.25l-.23,2.78a11,11,0,0,0-5.7-1.46c-2.41,0-4.62,1-4.62,3.73,0,2.51,2.21,3.11,4.81,4.16,3.14,1.29,6.64,2.28,6.64,6.83s-3.87,6.73-7.89,6.73a15.27,15.27,0,0,1-6.8-1.48Z"/><path class="cls-2" d="M355.66,389.3a2.08,2.08,0,1,1-2.11,2.08,2.08,2.08,0,0,1,2.11-2.08"/></g><polygon class="cls-2" points="377.07 370.06 371.27 380.36 365.5 370.06 362.13 370.06 369.65 383.13 369.65 393.16 372.62 393.16 372.62 383.16 380.38 370.06 377.07 370.06"/><g class="cls-3"><path class="cls-2" d="M386.81,389.3a2.08,2.08,0,1,1-2.12,2.08,2.08,2.08,0,0,1,2.12-2.08"/></g><path class="cls-2" d="M406.84,373.83l3.89,9.63H403Zm-1.23-3.77-9.4,23.1h3.07l2.8-7.19h9.67l2.94,7.19h3.2l-9.64-23.1Z"/><g class="cls-3"><path class="cls-2" d="M427.29,389.3a2.08,2.08,0,1,1-2.11,2.08,2.08,2.08,0,0,1,2.11-2.08"/></g><polygon class="cls-2" points="434.42 370.06 434.42 372.57 441.58 372.57 441.58 393.16 444.55 393.16 444.55 372.57 451.81 372.57 451.81 370.06 434.42 370.06"/><g class="cls-3"><path class="cls-2" d="M458.93,389.3a2.08,2.08,0,1,1-2.12,2.08,2.08,2.08,0,0,1,2.12-2.08"/></g><polygon class="cls-2" points="466.06 370.06 466.06 372.57 473.21 372.57 473.21 393.16 476.19 393.16 476.19 372.57 483.45 372.57 483.45 370.06 466.06 370.06"/><g class="cls-3"><path class="cls-2" d="M490.57,389.3a2.08,2.08,0,1,1-2.11,2.08,2.08,2.08,0,0,1,2.11-2.08"/></g></svg>